<svg width="200" height="80" xmlns="http://www.w3.org/2000/svg" xmlns:xlink="http://www.w3.org/1999/xlink">
  <defs>
    <symbol id="a" xmlns="http://www.w3.org/2000/svg" xmlns:xlink="http://www.w3.org/1999/xlink">
      <path fill="#727685" d="M575.95 36.05l.05.95v33q0 4-4 4H394q-4 0-4-4V37l.1-.95Q390.5 33 394 33h178q3.5 0 3.95 3.05M574 37l-.05-.7.05.05q-.35-1.35-2-1.35H430.5l-2.8 2.8-2.8-2.8h-9.35l-2.25 2.25-2.25-2.25H394q-1.65 0-1.9 1.3l-.05.2-.05.5v23.9l2.75 2.75L392 66.4V70q0 2 2 2h91.9l2.75-2.75L491.4 72h42.55l1.55-1.55 1.55 1.55H572q2 0 2-2V47.1l-2.4-2.4 2.4-2.4V37"/>
      <path fill="#9B9DAD" d="M575.95 36.05Q575.5 33 572 33H394q-3.5 0-3.9 3.05l-.1.95v33q0 4 4 4h178q4 0 4-4V37l-.05-.95M388 70.25V37q0-6 6-6h178q6 0 6 6v33.25q-.15 5.75-6 5.75H394q-5.85 0-6-5.75"/>
      <path fill="#838796" d="M574 37v5.3l-2.4 2.4 2.4 2.4V70q0 2-2 2h-34.95l-1.55-1.55-1.55 1.55H491.4l-2.75-2.75L485.9 72H394q-2 0-2-2v-3.6l2.75-2.75L392 60.9V37l.05-.5.05-.2q.25-1.3 1.9-1.3h17.05l2.25 2.25 2.25-2.25h9.35l2.8 2.8 2.8-2.8H572q1.65 0 2 1.35l-.05-.05.05.7"/>
      <path fill="#616374" d="M578 70.25V74q0 6-6 6H394q-6 0-6-6v-3.75q.15 5.75 6 5.75h178q5.85 0 6-5.75"/>
    </symbol>
  </defs>
  <use stroke="null" xlink:href="#a" y="-30.767" x="-387.746"/>
</svg>
